<svg id="Bold" xmlns="http://www.w3.org/2000/svg" viewBox="0 0 24 24"><title>ecology-globe-leaf</title><style>path {fill:#343a40;}</style><path d="M23.243,4.017a.5.5,0,0,0-.765-.149C20.368,5.655,17.292,5.33,15.6,7.322a3.8,3.8,0,0,0-1.148,3.266,3.133,3.133,0,0,0,1.489,1.891.5.5,0,0,1,.157.68,24.146,24.146,0,0,0-1.677,3.306.748.748,0,0,0,.409.978.731.731,0,0,0,.284.057.751.751,0,0,0,.694-.465,25.636,25.636,0,0,1,4.473-7.1.5.5,0,1,1,.746.665,24.31,24.31,0,0,0-2.63,3.558.5.5,0,0,0,.279.738c1.42.438,2.828-.625,3.786-1.754C23.972,11.369,24.621,6.623,23.243,4.017Z"/><path d="M12,0a12,12,0,0,0,0,24,1,1,0,0,0,1-1V1A1,1,0,0,0,12,0ZM5.046,4.82A10.078,10.078,0,0,1,7.237,3.209a.25.25,0,0,1,.335.346,12.568,12.568,0,0,0-.7,1.392.5.5,0,0,1-.46.3H5.22a.251.251,0,0,1-.174-.43Zm-2.921,5.6a9.919,9.919,0,0,1,.933-2.895.5.5,0,0,1,.447-.276H5.462a.5.5,0,0,1,.488.608,19.344,19.344,0,0,0-.393,2.681.5.5,0,0,1-.5.461H2.619a.5.5,0,0,1-.494-.579Zm1.38,6.329a.5.5,0,0,1-.447-.276,9.919,9.919,0,0,1-.933-2.895A.5.5,0,0,1,2.619,13h2.44a.5.5,0,0,1,.5.462,19.33,19.33,0,0,0,.393,2.68.5.5,0,0,1-.489.608Zm4.031,4a.25.25,0,0,1-.3.046A10.078,10.078,0,0,1,5.046,19.18a.251.251,0,0,1,.174-.43H6.412a.5.5,0,0,1,.46.3,12.568,12.568,0,0,0,.7,1.392A.249.249,0,0,1,7.536,20.745ZM11,20.87a.25.25,0,0,1-.418.184A7.408,7.408,0,0,1,9.111,19.12a.252.252,0,0,1,0-.248.248.248,0,0,1,.215-.122H10.5a.5.5,0,0,1,.5.5Zm0-4.62a.5.5,0,0,1-.5.5H8.529a.5.5,0,0,1-.484-.372,16.624,16.624,0,0,1-.481-2.836.5.5,0,0,1,.5-.542H10.5a.5.5,0,0,1,.5.5Zm0-5.75a.5.5,0,0,1-.5.5H8.063a.5.5,0,0,1-.5-.542,16.624,16.624,0,0,1,.481-2.836.5.5,0,0,1,.484-.372H10.5a.5.5,0,0,1,.5.5Zm0-5.75a.5.5,0,0,1-.5.5H9.331a.249.249,0,0,1-.22-.37,7.43,7.43,0,0,1,1.471-1.934A.25.25,0,0,1,11,3.13Z"/></svg>