<?xml version="1.0" encoding="UTF-8" standalone="no"?>
<svg
   xmlns:dc="http://purl.org/dc/elements/1.1/"
   xmlns:cc="http://creativecommons.org/ns#"
   xmlns:rdf="http://www.w3.org/1999/02/22-rdf-syntax-ns#"
   xmlns:svg="http://www.w3.org/2000/svg"
   xmlns="http://www.w3.org/2000/svg"
   version="1.1"
   viewBox="0 0 24 24"
   id="Bold">
  <metadata
     id="metadata15">
    <rdf:RDF>
      <cc:Work
         rdf:about="">
        <dc:format>image/svg+xml</dc:format>
        <dc:type
           rdf:resource="http://purl.org/dc/dcmitype/StillImage" />
        <dc:title>professional-network-linkedin</dc:title>
      </cc:Work>
    </rdf:RDF>
  </metadata>
  <defs
     id="defs13" />
  <title
     id="title2">professional-network-linkedin</title>
  <rect
     style="fill:#0077b5;fill-opacity:1"
     id="rect4"
     ry="0.5"
     rx="0.5"
     height="14"
     width="5"
     y="8.5"
     x="2" />
  <ellipse
     style="fill:#0077b5;fill-opacity:1"
     id="ellipse6"
     ry="2.5"
     rx="2.48"
     cy="4"
     cx="4.48" />
  <path
     style="fill:#0077b5;fill-opacity:1"
     id="path8"
     d="M18.5,22.5h3A.5.5,0,0,0,22,22V13.6C22,9.83,19.87,8,16.89,8a4.21,4.21,0,0,0-3.17,1.27A.41.41,0,0,1,13,9a.5.5,0,0,0-.5-.5h-3A.5.5,0,0,0,9,9V22a.5.5,0,0,0,.5.5h3A.5.5,0,0,0,13,22V14.5a2.5,2.5,0,0,1,5,0V22A.5.5,0,0,0,18.5,22.5Z" />
</svg>
