<?xml version="1.0" encoding="UTF-8" standalone="no"?>
<svg
   xmlns:dc="http://purl.org/dc/elements/1.1/"
   xmlns:cc="http://creativecommons.org/ns#"
   xmlns:rdf="http://www.w3.org/1999/02/22-rdf-syntax-ns#"
   xmlns:svg="http://www.w3.org/2000/svg"
   xmlns="http://www.w3.org/2000/svg"
   xmlns:xlink="http://www.w3.org/1999/xlink"
   xmlns:sodipodi="http://sodipodi.sourceforge.net/DTD/sodipodi-0.dtd"
   xmlns:inkscape="http://www.inkscape.org/namespaces/inkscape"
   viewBox="0 0 54.890132 54.213585"
   height="54.213585"
   width="54.890133"
   xml:space="preserve"
   id="svg815"
   version="1.1"
   sodipodi:docname="SouthCoastLogoSquare.svg"
   inkscape:version="0.92.3 (2405546, 2018-03-11)"><sodipodi:namedview
     pagecolor="#ffffff"
     bordercolor="#666666"
     borderopacity="1"
     objecttolerance="10"
     gridtolerance="10"
     guidetolerance="10"
     inkscape:pageopacity="0"
     inkscape:pageshadow="2"
     inkscape:window-width="733"
     inkscape:window-height="998"
     id="namedview5234"
     showgrid="false"
     inkscape:zoom="4.3531525"
     inkscape:cx="27.445066"
     inkscape:cy="27.106792"
     inkscape:window-x="0"
     inkscape:window-y="0"
     inkscape:window-maximized="0"
     inkscape:current-layer="g825" /><metadata
     id="metadata821"><rdf:RDF><cc:Work
         rdf:about=""><dc:format>image/svg+xml</dc:format><dc:type
           rdf:resource="http://purl.org/dc/dcmitype/StillImage" /><dc:title /></cc:Work></rdf:RDF></metadata><defs
     id="defs819"><linearGradient
       id="linearGradient871"><stop
         id="stop867"
         offset="0"
         style="stop-color:#ffffff;stop-opacity:1" /><stop
         id="stop869"
         offset="1"
         style="stop-color:#300000;stop-opacity:0" /></linearGradient><clipPath
       id="clipPath837"
       clipPathUnits="userSpaceOnUse"><path
         id="path835"
         d="M 411.676,400.879 H 0 V 0 h 411.676 z" /></clipPath><linearGradient
       gradientTransform="matrix(0.74090909,0,0,1,-1050.3932,454.94372)"
       gradientUnits="userSpaceOnUse"
       y2="-227.47186"
       x2="997.13696"
       y1="-227.47186"
       x1="311.60532"
       id="linearGradient873"
       xlink:href="#linearGradient871" /></defs><g
     transform="matrix(1.3333333,0,0,-1.3333333,30.745057,75.527509)"
     id="g823"><g
       transform="scale(0.1)"
       id="g825"><path
         id="path827"
         style="fill:#ffffff;fill-opacity:1;fill-rule:nonzero;stroke:none"
         d="m -27.575928,566.45633 -77.067002,-116.407 H 49.271072 Z" /><path
         id="path829"
         style="fill:#ffffff;fill-opacity:1;fill-rule:nonzero;stroke:none"
         d="m -13.247928,159.85443 h -28.871 v 302.9529 h 28.871 v -302.9529" /><g
         style="stroke:#70aeee;stroke-opacity:1"
         transform="translate(-230.58793,77.901327)"
         id="g833"
         clip-path="url(#clipPath837)"><path
           mask="none"
           clip-path="none"
           d="m -745.574,274.141 c 95.136,0 95.136,-113.399 190.265,-113.399 95.121,0 95.121,113.399 190.243,113.399 95.125,0 95.125,-113.399 190.253,-113.399 95.1294,0 95.1294,113.399 190.2622,113.399 95.1408,0 95.1408,-113.399 190.2888,-113.399 95.117,0 95.117,113.399 190.235,113.399 95.136,0 95.136,-113.399 190.293,-113.399 95.156,0 95.156,113.399 190.312,113.399 95.156,0 95.156,-113.399 190.332,-113.399 95.16,0 95.16,113.399 190.33,113.399"
           style="fill:none;stroke:#70aeee;stroke-width:27.26929283;stroke-linecap:butt;stroke-linejoin:miter;stroke-miterlimit:10;stroke-dasharray:none;stroke-opacity:1"
           id="path839" /></g></g></g></svg>