<?xml version="1.0" encoding="UTF-8" standalone="no"?>
<!-- Created with Inkscape (http://www.inkscape.org/) -->

<svg
   xmlns:dc="http://purl.org/dc/elements/1.1/"
   xmlns:cc="http://creativecommons.org/ns#"
   xmlns:rdf="http://www.w3.org/1999/02/22-rdf-syntax-ns#"
   xmlns:svg="http://www.w3.org/2000/svg"
   xmlns="http://www.w3.org/2000/svg"
   xmlns:sodipodi="http://sodipodi.sourceforge.net/DTD/sodipodi-0.dtd"
   xmlns:inkscape="http://www.inkscape.org/namespaces/inkscape"
   xmlns:xlink="http://www.w3.org/1999/xlink"
   version="1.1"
   id="svg815"
   xml:space="preserve"
   width="279.29333"
   height="111.44"
   viewBox="0 0 279.29333 111.44"
   sodipodi:docname="SouthCoastLogoAnimated.svg"
   inkscape:version="0.92.3 (2405546, 2018-03-11)"><metadata
     id="metadata821"><rdf:RDF><cc:Work
         rdf:about=""><dc:format>image/svg+xml</dc:format><dc:type
           rdf:resource="http://purl.org/dc/dcmitype/StillImage" /><dc:title></dc:title></cc:Work></rdf:RDF></metadata><defs
     id="defs819" /><sodipodi:namedview
     pagecolor="#ffffff"
     bordercolor="#666666"
     borderopacity="1"
     objecttolerance="10"
     gridtolerance="10"
     guidetolerance="10"
     inkscape:pageopacity="0"
     inkscape:pageshadow="2"
     inkscape:window-width="1920"
     inkscape:window-height="1052"
     id="namedview817"
     showgrid="false"
     inkscape:zoom="5.0162314"
     inkscape:cx="96.471077"
     inkscape:cy="32.603262"
     inkscape:window-x="0"
     inkscape:window-y="0"
     inkscape:window-maximized="1"
     inkscape:current-layer="g823"
     showguides="true"
     inkscape:guide-bbox="true"><sodipodi:guide
       position="28.108751,33.291924"
       orientation="1,0"
       id="guide4554"
       inkscape:locked="false" /><sodipodi:guide
       position="56.018148,35.484806"
       orientation="1,0"
       id="guide4556"
       inkscape:locked="false" /></sodipodi:namedview><g
     id="g823"
     inkscape:groupmode="layer"
     inkscape:label="ink_ext_XXXXXX"
     transform="matrix(1.3333333,0,0,-1.3333333,0,111.44)"><path
       inkscape:connector-curvature="0"
       id="path827"
       style="fill:#ffffff;fill-opacity:1;fill-rule:nonzero;stroke:none;stroke-width:0.1"
       d="M 104.852,83.5816 96.375,70.7742 h 6.877 V 0 h 3.176 v 70.7742 h 6.877 l -8.453,12.8074" /><path
       inkscape:connector-curvature="0"
       id="path829"
       style="fill:#ffffff;fill-opacity:1;fill-rule:nonzero;stroke:none;stroke-width:0.1"
       d="m 11.009,55.5008 c -1.34377,0.459 -2.61877,0.6887 -3.82462,0.6887 -1.36485,0 -2.47735,-0.3125 -3.33516,-0.9368 -0.85899,-0.6238 -1.28906,-1.5117 -1.28906,-2.664 0,-1.3653 1.12539,-2.5664 3.37617,-3.5996 1.66445,-0.7684 2.7664,-1.3028 3.30469,-1.6004 0.53867,-0.2989 1.08518,-0.7102 1.63988,-1.2317 0.5546,-0.5234 1.0007,-1.1406 1.3371,-1.8496 0.3355,-0.709 0.5031,-1.5058 0.5031,-2.3914 0,-2.1984 -0.7383,-3.9023 -2.2156,-5.1125 -1.47816,-1.2109 -3.21956,-1.8152 -5.22542,-1.8152 -1.94102,0 -3.64297,0.3836 -5.103908,1.1512 l 0.544141,2.2558 c 1.717187,-0.7781 3.216017,-1.168 4.496097,-1.168 1.49336,0 2.69101,0.3868 3.59336,1.1602 0.90117,0.7734 1.35113,1.8379 1.35113,3.1926 0,1.0027 -0.29371,1.8523 -0.88004,2.5515 -0.58633,0.6993 -1.66953,1.4102 -3.24844,2.1368 -1.62148,0.7461 -2.66953,1.2558 -3.14375,1.5273 -0.47461,0.2727 -0.94726,0.6484 -1.4164,1.1289 C 1.00313,49.4051 0.640234,49.9422 0.383594,50.541 0.128125,51.1375 0,51.7891 0,52.493 c 0,1.8664 0.671875,3.3222 2.01602,4.3683 1.34414,1.0457 3.04609,1.5684 5.10468,1.5684 1.5043,0 2.9977,-0.2293 4.4805,-0.6887 L 11.009,55.5008" /><path
       inkscape:connector-curvature="0"
       id="path831"
       style="fill:#ffffff;fill-opacity:1;fill-rule:nonzero;stroke:none;stroke-width:0.1"
       d="m 25.8586,37.1629 c 1.5144,0 2.7094,0.6406 3.5844,1.9211 0.8746,1.2801 1.3121,2.832 1.3121,4.6562 0,1.9207 -0.4324,3.4989 -1.2965,4.7364 -0.8641,1.2371 -2.0641,1.8562 -3.6,1.8562 -1.5473,0 -2.7473,-0.6113 -3.6008,-1.8328 -0.8531,-1.2219 -1.2805,-2.8078 -1.2805,-4.7598 0,-1.8566 0.4329,-3.4172 1.2965,-4.6808 0.8641,-1.2637 2.0586,-1.8965 3.5848,-1.8965 z m 0,15.3301 c 2.2934,0 4.1176,-0.8008 5.4727,-2.4004 1.3542,-1.5996 2.0316,-3.7071 2.0316,-6.3203 0,-2.6348 -0.6774,-4.7586 -2.0316,-6.3692 -1.3551,-1.6101 -3.1793,-2.4148 -5.4727,-2.4148 -2.3043,0 -4.1313,0.8015 -5.4801,2.407 -1.3504,1.6055 -2.025,3.7305 -2.025,6.377 0,2.6242 0.6778,4.7324 2.032,6.3281 1.3551,1.5949 3.1793,2.3926 5.4731,2.3926" /><path
       inkscape:connector-curvature="0"
       id="path833"
       style="fill:#ffffff;fill-opacity:1;fill-rule:nonzero;stroke:none;stroke-width:0.1"
       d="m 51.9566,35.4188 h -2.4961 v 2.4648 c -1.7925,-1.9102 -3.68,-2.8641 -5.6644,-2.8641 -3.1258,0 -4.6887,1.8934 -4.6887,5.6805 v 11.3926 h 2.4965 V 41.4199 c 0,-1.4191 0.2238,-2.4777 0.6719,-3.1769 0.4476,-0.6992 1.2051,-1.0469 2.2722,-1.0469 1.525,0 3.1629,0.9492 4.9125,2.8477 v 12.0488 h 2.4961 V 35.4188" /><path
       inkscape:connector-curvature="0"
       id="path835"
       style="fill:#ffffff;fill-opacity:1;fill-rule:nonzero;stroke:none;stroke-width:0.1"
       d="m 71.8145,36.1719 c -1.675,-0.7688 -3.3227,-1.1524 -4.9446,-1.1524 -2.9761,0 -4.464,1.5731 -4.464,4.7207 v 10.1922 h -3.2004 v 2.1602 h 3.2004 v 4.5605 h 2.432 v -4.5605 h 5.6641 v -2.1602 h -5.6641 v -9.5371 c 0,-1.0137 0.2242,-1.8008 0.6719,-2.3601 0.448,-0.5598 1.0562,-0.8391 1.8242,-0.8391 1.3656,0 2.7148,0.3027 4.0488,0.9121 l 0.4317,-1.9363" /><path
       inkscape:connector-curvature="0"
       id="path837"
       style="fill:#ffffff;fill-opacity:1;fill-rule:nonzero;stroke:none;stroke-width:0.1"
       d="m 91.3203,35.4188 h -2.4961 v 10.6894 c 0,1.4824 -0.2383,2.5566 -0.7121,3.2246 -0.4742,0.666 -1.2195,1 -2.2332,1 -1.5254,0 -3.1621,-0.95 -4.9121,-2.8476 V 35.4188 h -2.4961 v 22.5781 h 2.4961 v -8.3516 c 1.793,1.8977 3.6809,2.8477 5.6648,2.8477 3.1262,0 4.6887,-1.8887 4.6887,-5.6641 V 35.4188" /><path
       inkscape:connector-curvature="0"
       id="path839"
       style="fill:#ffffff;fill-opacity:1;fill-rule:nonzero;stroke:none;stroke-width:0.1"
       d="m 131.5,36.827 c -1.771,-1.2266 -3.824,-1.8387 -6.161,-1.8387 -2.923,0 -5.144,1.0019 -6.663,3.0078 -1.521,2.0047 -2.281,4.9062 -2.281,8.7039 0,3.6699 0.736,6.541 2.208,8.6172 1.471,2.0742 3.717,3.1125 6.736,3.1125 1.089,0 2.165,-0.1387 3.232,-0.416 1.068,-0.2785 1.926,-0.6457 2.576,-1.1047 l -0.864,-2.0645 c -1.504,0.8535 -3.152,1.2813 -4.944,1.2813 -2.08,0 -3.626,-0.7559 -4.64,-2.2656 -1.013,-1.5098 -1.52,-3.8954 -1.52,-7.1602 0,-6.2723 2.053,-9.4082 6.16,-9.4082 1.739,0 3.52,0.5332 5.345,1.5996 L 131.5,36.827" /><path
       inkscape:connector-curvature="0"
       id="path841"
       style="fill:#ffffff;fill-opacity:1;fill-rule:nonzero;stroke:none;stroke-width:0.1"
       d="m 143.853,37.1629 c 1.514,0 2.71,0.6406 3.585,1.9211 0.874,1.2801 1.312,2.832 1.312,4.6562 0,1.9207 -0.433,3.4989 -1.297,4.7364 -0.864,1.2371 -2.064,1.8562 -3.6,1.8562 -1.546,0 -2.748,-0.6113 -3.601,-1.8328 -0.854,-1.2219 -1.279,-2.8078 -1.279,-4.7598 0,-1.8566 0.431,-3.4172 1.296,-4.6808 0.864,-1.2637 2.059,-1.8965 3.584,-1.8965 z m 0,15.3301 c 2.293,0 4.118,-0.8008 5.472,-2.4004 1.355,-1.5996 2.032,-3.7071 2.032,-6.3203 0,-2.6348 -0.677,-4.7586 -2.032,-6.3692 -1.354,-1.6101 -3.179,-2.4148 -5.472,-2.4148 -2.304,0 -4.13,0.8015 -5.48,2.407 -1.35,1.6055 -2.025,3.7305 -2.025,6.377 0,2.6242 0.677,4.7324 2.033,6.3281 1.353,1.5949 3.179,2.3926 5.472,2.3926" /><path
       inkscape:connector-curvature="0"
       id="path843"
       style="fill:#ffffff;fill-opacity:1;fill-rule:nonzero;stroke:none;stroke-width:0.1"
       d="m 167.487,40.3641 v 3.0234 c -2.251,-0.202 -3.795,-0.3926 -4.632,-0.5684 -0.837,-0.1757 -1.562,-0.5027 -2.175,-0.9832 -0.615,-0.4796 -0.922,-1.1308 -0.922,-1.9523 0,-0.7461 0.262,-1.3496 0.785,-1.8074 0.522,-0.459 1.188,-0.6887 2,-0.6887 0.885,0 1.766,0.2637 2.64,0.791 0.875,0.5285 1.642,1.257 2.304,2.1856 z m 2.911,-4.9453 h -2.479 c -0.202,0.673 -0.304,1.5683 -0.304,2.6894 -1.419,-2.0809 -3.349,-3.1199 -5.793,-3.1199 -1.237,0 -2.327,0.4383 -3.271,1.3191 -0.944,0.8789 -1.416,2.0137 -1.416,3.4004 0,0.8215 0.164,1.5469 0.495,2.1758 0.331,0.6301 0.816,1.1602 1.456,1.5918 0.641,0.4316 1.419,0.7734 2.336,1.0246 0.918,0.2508 2.006,0.4246 3.265,0.5203 l 2.8,0.2246 v 0.7989 c 0,2.8593 -1.334,4.289 -4.001,4.289 -0.629,0 -1.425,-0.1367 -2.391,-0.4082 -0.965,-0.2723 -1.796,-0.5945 -2.49,-0.9676 l -0.655,1.7918 c 2.273,1.1621 4.384,1.7442 6.337,1.7442 3.797,0 5.695,-2.0106 5.695,-6.0332 v -7.168 c 0,-1.4512 0.14,-2.7422 0.416,-3.873" /><path
       inkscape:connector-curvature="0"
       id="path845"
       style="fill:#ffffff;fill-opacity:1;fill-rule:nonzero;stroke:none;stroke-width:0.1"
       d="m 187.904,49.709 c -1.396,0.4578 -2.715,0.6883 -3.951,0.6883 -1.355,0 -2.428,-0.2274 -3.217,-0.6817 -0.789,-0.4531 -1.184,-1.0574 -1.184,-1.8144 0,-0.4805 0.181,-0.9004 0.544,-1.2578 0.363,-0.3575 1.088,-0.6895 2.176,-0.9989 l 2.384,-0.6886 c 1.1,-0.3094 1.995,-0.6797 2.689,-1.1121 0.693,-0.4317 1.214,-0.9543 1.56,-1.5676 0.347,-0.6141 0.52,-1.3262 0.52,-2.1367 0,-1.5899 -0.667,-2.8457 -2,-3.7684 -1.333,-0.9231 -3.03,-1.3828 -5.089,-1.3828 -2.048,0 -3.738,0.3086 -5.072,0.9265 l 0.48,2.1614 c 1.397,-0.6621 2.897,-0.9922 4.496,-0.9922 1.387,0 2.516,0.2578 3.385,0.7754 0.869,0.5176 1.304,1.2019 1.304,2.0554 0,0.5774 -0.216,1.0918 -0.648,1.545 -0.431,0.4531 -1.449,0.9257 -3.049,1.416 -1.291,0.3945 -2.24,0.6906 -2.847,0.8879 -0.61,0.1972 -1.174,0.489 -1.697,0.8718 -0.523,0.3848 -0.92,0.843 -1.192,1.377 -0.271,0.5332 -0.408,1.1301 -0.408,1.7922 0,1.4402 0.629,2.5808 1.889,3.4246 1.257,0.8418 2.927,1.2637 5.007,1.2637 1.344,0 2.838,-0.2301 4.481,-0.6883 l -0.561,-2.0957" /><path
       inkscape:connector-curvature="0"
       id="path847"
       style="fill:#ffffff;fill-opacity:1;fill-rule:nonzero;stroke:none;stroke-width:0.1"
       d="m 209.475,36.1719 c -1.675,-0.7688 -3.323,-1.1524 -4.945,-1.1524 -2.975,0 -4.464,1.5731 -4.464,4.7207 v 10.1922 h -3.201 v 2.1602 h 3.201 v 4.5605 h 2.432 v -4.5605 h 5.664 v -2.1602 h -5.664 v -9.5371 c 0,-1.0137 0.224,-1.8008 0.672,-2.3601 0.448,-0.5598 1.057,-0.8391 1.824,-0.8391 1.365,0 2.715,0.3027 4.049,0.9121 l 0.432,-1.9363" /><path
       inkscape:connector-curvature="0"
       id="path849"
       style="fill:none;stroke:#70aeee;stroke-width:3;stroke-linecap:butt;stroke-linejoin:miter;stroke-miterlimit:10;stroke-dasharray:none;stroke-opacity:1"
       d="m 0.176172,28.0801 c 10.464428,0 10.464428,-12.4727 20.928928,-12.4727 10.4625,0 10.4625,12.4727 20.9246,12.4727 10.4637,0 10.4637,-12.4727 20.9273,-12.4727 10.4625,0 10.4625,12.4727 20.9246,12.4727 10.4637,0 10.4637,-12.4727 20.9273,-12.4727 10.4641,0 10.4641,12.4727 20.9274,12.4727 10.4652,0 10.4652,-12.4727 20.9296,-12.4727 10.465,0 10.465,12.4727 20.931,12.4727 10.465,0 10.465,-12.4727 20.93,-12.4727 10.466,0 10.466,12.4727 20.931,12.4727 10.468,0 10.468,-12.4727 20.935,-12.4727 10.467,0 10.467,12.4727 20.934,12.4727">

    <animateMotion dur="4s" repeatCount="indefinite" rotate="auto" >
       <mpath xlink:href="#path4558"/>
    </animateMotion>
</path>
    <path
       style="fill:none;stroke:#000000;stroke-width:0.75px;stroke-linecap:butt;stroke-linejoin:miter;stroke-opacity:1"
       d="M 251.3269,44.753411 H 209.4628"
       id="path4558"
       inkscape:connector-curvature="0"/></g></svg>